<svg width="1323" height="289" viewBox="0 0 1323 289" fill="none" xmlns="http://www.w3.org/2000/svg">
<path d="M252.347 241V95.5455H306.892C318.066 95.5455 327.441 97.6288 335.017 101.795C342.64 105.962 348.393 111.691 352.276 118.983C356.206 126.227 358.171 134.466 358.171 143.699C358.171 153.027 356.206 161.312 352.276 168.557C348.346 175.801 342.546 181.507 334.875 185.673C327.205 189.793 317.759 191.852 306.537 191.852H270.386V170.19H302.986C309.52 170.19 314.87 169.054 319.037 166.781C323.204 164.509 326.281 161.384 328.27 157.406C330.306 153.429 331.324 148.86 331.324 143.699C331.324 138.538 330.306 133.992 328.27 130.062C326.281 126.133 323.18 123.079 318.966 120.901C314.799 118.675 309.425 117.562 302.844 117.562H278.696V241H252.347ZM392.36 243.202C385.447 243.202 379.221 241.971 373.681 239.509C368.189 236.999 363.833 233.306 360.613 228.429C357.441 223.552 355.855 217.539 355.855 210.389C355.855 204.234 356.991 199.144 359.264 195.119C361.536 191.095 364.638 187.875 368.568 185.46C372.498 183.045 376.925 181.223 381.849 179.991C386.82 178.713 391.958 177.79 397.261 177.222C403.653 176.559 408.837 175.967 412.815 175.446C416.792 174.878 419.68 174.026 421.48 172.889C423.326 171.705 424.249 169.883 424.249 167.42V166.994C424.249 161.644 422.663 157.501 419.491 154.565C416.319 151.63 411.749 150.162 405.784 150.162C399.486 150.162 394.491 151.535 390.798 154.281C387.152 157.027 384.69 160.271 383.411 164.011L359.406 160.602C361.3 153.973 364.425 148.434 368.781 143.983C373.137 139.485 378.463 136.123 384.761 133.898C391.058 131.625 398.018 130.489 405.641 130.489C410.897 130.489 416.129 131.104 421.337 132.335C426.546 133.566 431.304 135.602 435.613 138.443C439.922 141.237 443.378 145.048 445.982 149.878C448.634 154.707 449.96 160.744 449.96 167.989V241H425.244V226.014H424.391C422.829 229.045 420.627 231.885 417.786 234.537C414.993 237.141 411.465 239.248 407.204 240.858C402.99 242.42 398.042 243.202 392.36 243.202ZM399.036 224.31C404.197 224.31 408.672 223.292 412.46 221.256C416.248 219.172 419.159 216.426 421.195 213.017C423.279 209.608 424.32 205.891 424.32 201.866V189.011C423.516 189.674 422.142 190.29 420.201 190.858C418.307 191.426 416.176 191.923 413.809 192.349C411.442 192.776 409.098 193.154 406.778 193.486C404.458 193.817 402.445 194.101 400.741 194.338C396.906 194.859 393.473 195.711 390.443 196.895C387.412 198.079 385.021 199.736 383.269 201.866C381.517 203.95 380.641 206.649 380.641 209.963C380.641 214.698 382.37 218.273 385.826 220.688C389.283 223.102 393.686 224.31 399.036 224.31ZM513.286 131.909V151.795H450.573V131.909H513.286ZM466.056 105.773H491.766V208.188C491.766 211.644 492.287 214.295 493.329 216.142C494.418 217.941 495.838 219.172 497.59 219.835C499.342 220.498 501.284 220.83 503.414 220.83C505.024 220.83 506.492 220.711 507.818 220.474C509.191 220.238 510.232 220.025 510.943 219.835L515.275 239.935C513.902 240.408 511.937 240.929 509.38 241.497C506.871 242.065 503.793 242.397 500.147 242.491C493.708 242.681 487.908 241.71 482.747 239.58C477.586 237.402 473.49 234.04 470.46 229.494C467.477 224.949 466.009 219.267 466.056 212.449V105.773ZM564.202 243.131C553.312 243.131 543.96 240.74 536.148 235.957C528.383 231.175 522.393 224.57 518.179 216.142C514.012 207.667 511.929 197.913 511.929 186.881C511.929 175.801 514.06 166.024 518.321 157.548C522.583 149.026 528.596 142.397 536.361 137.662C544.173 132.88 553.406 130.489 564.06 130.489C572.914 130.489 580.75 132.122 587.568 135.389C594.434 138.609 599.903 143.178 603.975 149.097C608.047 154.968 610.367 161.833 610.935 169.693H586.361C585.367 164.437 582.999 160.058 579.259 156.554C575.565 153.003 570.618 151.227 564.415 151.227C559.159 151.227 554.543 152.648 550.565 155.489C546.588 158.282 543.487 162.307 541.261 167.562C539.083 172.818 537.994 179.116 537.994 186.455C537.994 193.888 539.083 200.28 541.261 205.631C543.44 210.934 546.493 215.029 550.423 217.918C554.401 220.759 559.065 222.179 564.415 222.179C568.203 222.179 571.588 221.469 574.571 220.048C577.601 218.58 580.135 216.473 582.171 213.727C584.207 210.981 585.603 207.643 586.361 203.713H610.935C610.319 211.431 608.047 218.273 604.117 224.239C600.187 230.157 594.836 234.797 588.065 238.159C581.295 241.473 573.34 243.131 564.202 243.131ZM640.757 177.08V241H615.046V95.5455H640.188V150.446H641.467C644.024 144.291 647.977 139.437 653.328 135.886C658.725 132.288 665.591 130.489 673.924 130.489C681.5 130.489 688.105 132.075 693.739 135.247C699.374 138.42 703.73 143.06 706.808 149.168C709.933 155.276 711.495 162.733 711.495 171.54V241H685.785V175.517C685.785 168.178 683.891 162.473 680.103 158.401C676.363 154.281 671.107 152.222 664.336 152.222C659.791 152.222 655.719 153.216 652.12 155.205C648.569 157.146 645.775 159.963 643.739 163.656C641.751 167.349 640.757 171.824 640.757 177.08Z" fill="white"/>
<path d="M622 68.7646C624.747 66.3406 628.739 65.2029 632.142 64.2999C646.092 60.5988 662.923 58.5057 676.954 62.977C704.935 71.8939 718.625 104.471 725.129 130.278C733.964 165.333 737.09 201.312 737.09 237.376C737.09 255.107 756.397 201.484 760.527 184.24C762.488 176.054 766.5 164 771 159.161C779.551 148.356 787.5 165 793.709 175.366C799.025 184.24 817.541 243.556 824.62 236.549C825.957 235.225 830.937 225.239 831.323 224.466L831.344 224.422C835.987 215.162 841.909 202.777 846.117 193.776C860.323 163.385 873.178 132.126 890.433 103.269C906.672 76.1108 925.305 50.4016 955.364 39M953.176 143C932.066 144.161 909.542 147.487 895.686 165.489C886.581 177.319 881.739 196.886 883.284 211.789C884.378 222.33 889.123 232.168 898.938 236.869C910.567 242.437 923.237 230.535 930.302 222.427C941.892 209.127 950.641 192.297 955.932 175.521C957.163 171.617 961.74 149.326 958.523 166.701C953.918 191.568 955.023 216.311 958.137 241.223M994.743 51C994.199 114.464 988.062 178.099 992.758 241.493M1028.42 18C1028.92 92.1605 1017.92 199.5 1032.92 240.5M1077.2 214.986C1097.08 203.901 1121.72 192.087 1133.97 171.883C1137.57 165.945 1141.56 155.917 1139.27 148.733C1135.75 137.76 1107.43 141.216 1100.5 142.741C1082.94 146.605 1072.95 158.374 1064.74 174.418C1056.44 190.659 1054.18 208.645 1067.39 223.144C1085.98 243.56 1123 254.241 1158 208.241M1273.17 13C1253.19 42.0637 1237.45 73.3936 1223.67 105.821C1209.82 138.412 1196.9 171.747 1189.5 206.47C1188.18 212.668 1181.85 231.454 1186.96 237.888C1192.58 244.948 1213.73 239.263 1219.7 238.219C1250.14 232.894 1280.05 224.263 1309.88 216.391M1168 130.074C1209.55 126.878 1251.35 126.105 1293.01 126.105" stroke="#FF7557" stroke-width="25" stroke-linecap="round"/>
<path fill-rule="evenodd" clip-rule="evenodd" d="M104.41 63.1284C95.0398 61.7492 85.5389 64.6604 78.8261 71.1348L30.2165 118.018C22.6447 125.321 19.7704 136.048 22.6763 146.159L41.3317 211.066C44.2377 221.176 52.4823 229.134 62.9601 231.941L130.225 249.965C140.703 252.772 151.822 250.003 159.394 242.7L208.003 195.817C213.912 190.118 216.96 182.334 216.633 174.385L104.41 63.1284Z" fill="#FF7557"/>
<g filter="url(#filter0_dd_1645_1549)">
<path fill-rule="evenodd" clip-rule="evenodd" d="M104.266 62.871L216.701 174.338C215.434 174.16 214.168 173.903 212.912 173.566L145.647 155.543C135.169 152.735 126.924 144.778 124.018 134.667L105.363 69.7602C104.707 67.4797 104.346 65.1679 104.266 62.871Z" fill="#F8BAAD"/>
</g>
<defs>
<filter id="filter0_dd_1645_1549" x="79.2662" y="40.8711" width="170.098" height="161.467" filterUnits="userSpaceOnUse" color-interpolation-filters="sRGB">
<feFlood flood-opacity="0" result="BackgroundImageFix"/>
<feColorMatrix in="SourceAlpha" type="matrix" values="0 0 0 0 0 0 0 0 0 0 0 0 0 0 0 0 0 0 127 0" result="hardAlpha"/>
<feOffset dy="3"/>
<feGaussianBlur stdDeviation="12.5"/>
<feComposite in2="hardAlpha" operator="out"/>
<feColorMatrix type="matrix" values="0 0 0 0 0.258118 0 0 0 0 0.0462694 0 0 0 0 0.000215292 0 0 0 0.35 0"/>
<feBlend mode="normal" in2="BackgroundImageFix" result="effect1_dropShadow_1645_1549"/>
<feColorMatrix in="SourceAlpha" type="matrix" values="0 0 0 0 0 0 0 0 0 0 0 0 0 0 0 0 0 0 127 0" result="hardAlpha"/>
<feOffset dx="20" dy="13"/>
<feGaussianBlur stdDeviation="6.33148"/>
<feComposite in2="hardAlpha" operator="out"/>
<feColorMatrix type="matrix" values="0 0 0 0 0.321344 0 0 0 0 0.0603862 0 0 0 0 0.00365627 0 0 0 0.1 0"/>
<feBlend mode="normal" in2="effect1_dropShadow_1645_1549" result="effect2_dropShadow_1645_1549"/>
<feBlend mode="normal" in="SourceGraphic" in2="effect2_dropShadow_1645_1549" result="shape"/>
</filter>
</defs>
</svg>
